<svg width="558" height="558" viewBox="0 0 558 558" fill="none" xmlns="http://www.w3.org/2000/svg">
<rect x="3.39782" y="3.39782" width="551.204" height="551.204" rx="275.602" fill="#00030A" stroke="#88939E" stroke-width="6.79564"/>
<path d="M262.104 297.4L225.608 335.446C225.008 336.072 225.004 337.059 225.599 337.69L280.068 395.418C280.376 395.744 280.804 395.928 281.252 395.928H355.153C356.586 395.928 357.32 394.209 356.327 393.174L264.454 297.4C263.813 296.732 262.745 296.732 262.104 297.4Z" fill="white"/>
<path d="M387.076 161.421H314.132C313.693 161.421 313.273 161.598 312.967 161.913L223.316 253.827C223.02 254.131 222.854 254.539 222.854 254.963V332.381C222.854 333.847 224.64 334.566 225.655 333.508L388.25 164.176C389.243 163.142 388.51 161.421 387.076 161.421Z" fill="white"/>
<path d="M219.546 163.174H169.028C168.129 163.174 167.4 163.903 167.4 164.801V306.153C167.4 307.616 169.181 308.336 170.198 307.284L220.716 255.041C221.009 254.737 221.173 254.332 221.173 253.909V164.801C221.173 163.903 220.445 163.174 219.546 163.174Z" fill="#88939E"/>
</svg>
