<svg width="224" height="235" viewBox="0 0 224 235" fill="none" xmlns="http://www.w3.org/2000/svg">
<path d="M95.1044 136.4L58.6081 174.446C58.0076 175.072 58.0035 176.059 58.5988 176.69L113.068 234.418C113.376 234.744 113.804 234.928 114.252 234.928H188.153C189.586 234.928 190.32 233.209 189.327 232.174L97.4536 136.4C96.8129 135.732 95.7451 135.732 95.1044 136.4Z" fill="white"/>
<path d="M220.076 0.421387H147.132C146.693 0.421387 146.273 0.598483 145.967 0.91254L56.3161 92.8268C56.0196 93.1308 55.8537 93.5386 55.8537 93.9633V171.381C55.8537 172.847 57.6399 173.566 58.6553 172.508L221.25 3.17633C222.243 2.14183 221.51 0.421387 220.076 0.421387Z" fill="white"/>
<path d="M52.5457 2.17383H2.02771C1.1288 2.17383 0.400085 2.90254 0.400085 3.80145V145.153C0.400085 146.616 2.18061 147.336 3.19778 146.284L53.7158 94.0409C54.0093 93.7374 54.1733 93.3317 54.1733 92.9095V3.80145C54.1733 2.90254 53.4446 2.17383 52.5457 2.17383Z" fill="#88939E"/>
</svg>
